<?xml version="1.0" encoding="UTF-8" standalone="no"?>
<!-- Created with Inkscape (http://www.inkscape.org/) -->
<svg
   xmlns:dc="http://purl.org/dc/elements/1.1/"
   xmlns:cc="http://creativecommons.org/ns#"
   xmlns:rdf="http://www.w3.org/1999/02/22-rdf-syntax-ns#"
   xmlns:svg="http://www.w3.org/2000/svg"
   xmlns="http://www.w3.org/2000/svg"
   xmlns:sodipodi="http://sodipodi.sourceforge.net/DTD/sodipodi-0.dtd"
   xmlns:inkscape="http://www.inkscape.org/namespaces/inkscape"
   width="900"
   height="495"
   id="svg2618"
   sodipodi:version="0.32"
   inkscape:version="0.46"
   version="1.0"
   sodipodi:docname="tuple-failure.svg"
   inkscape:output_extension="org.inkscape.output.svg.inkscape">
  <defs
     id="defs2620">
    <inkscape:perspective
       sodipodi:type="inkscape:persp3d"
       inkscape:vp_x="0 : 526.18109 : 1"
       inkscape:vp_y="0 : 1000 : 0"
       inkscape:vp_z="744.09448 : 526.18109 : 1"
       inkscape:persp3d-origin="372.04724 : 350.78739 : 1"
       id="perspective2626" />
  </defs>
  <sodipodi:namedview
     id="base"
     pagecolor="#ffffff"
     bordercolor="#666666"
     borderopacity="1.0"
     gridtolerance="10000"
     guidetolerance="10"
     objecttolerance="10"
     inkscape:pageopacity="0.0"
     inkscape:pageshadow="2"
     inkscape:zoom="0.35"
     inkscape:cx="33.571429"
     inkscape:cy="24.001613"
     inkscape:document-units="px"
     inkscape:current-layer="layer1"
     showgrid="false"
     inkscape:window-width="1440"
     inkscape:window-height="849"
     inkscape:window-x="0"
     inkscape:window-y="27" />
  <metadata
     id="metadata2623">
    <rdf:RDF>
      <cc:Work
         rdf:about="">
        <dc:format>image/svg+xml</dc:format>
        <dc:type
           rdf:resource="http://purl.org/dc/dcmitype/StillImage" />
      </cc:Work>
    </rdf:RDF>
  </metadata>
  <g
     inkscape:label="Layer 1"
     inkscape:groupmode="layer"
     id="layer1">
    <g
       id="g3099"
       transform="translate(-1.4285645,-26.078565)">
      <g
         id="g2444"
         transform="matrix(2.0822883,0,0,2.0822883,6.0719293,-363.55343)">
        <path
           d="M 203.691,311.359 L 165.031,311.359"
           style="fill:none;stroke:#000000;stroke-width:2.08966303;stroke-linecap:butt;stroke-linejoin:miter;stroke-miterlimit:10;stroke-dasharray:none;stroke-opacity:1"
           id="path2446" />
      </g>
      <path
         d="M 430.21534,295.66915 L 451.96693,284.78711 L 430.21534,273.91132 L 430.21534,295.66915 z"
         style="fill:#000000;fill-opacity:1;fill-rule:nonzero;stroke:none"
         id="path2448" />
      <text
         style="font-size:24.98745918px"
         y="159.36124"
         x="113.52126"
         id="text2454">
        <tspan
           style="font-size:24.36717796px;font-variant:normal;font-weight:bold;writing-mode:lr-tb;fill:#000000;fill-opacity:1;fill-rule:nonzero;stroke:none;font-family:DejaVuSansBoldOblique;-inkscape-font-specification:DejaVuSansBoldOblique"
           x="113.52126 131.06561 147.58661 164.91164 182.33412 198.85515 568.23285 586.99554 603.51654 617.94183 634.46277 642.79633 658.65948 675.18036"
           y="159.36124"
           sodipodi:role="line"
           id="tspan2456">SenderReceiver</tspan>
      </text>
      <text
         style="font-size:24.98745918px"
         y="228.54848"
         x="484.16858"
         id="text2458">
        <tspan
           style="font-size:24.36717796px;font-variant:normal;font-weight:normal;writing-mode:lr-tb;fill:#000000;fill-opacity:1;fill-rule:nonzero;stroke:none;font-family:DejaVuSans;-inkscape-font-specification:DejaVuSans"
           x="484.16858 499.66611 507.39056 515.11493 532.0257 547.01154 562.46039 577.88477 592.87061 605.5415 615.09344 622.81787 637.70618 653.13049 662.68256 678.13135 693.01959 699.76941 715.19373 730.96722 738.69159 748.24359 763.66797 779.11676 785.86646 800.85223"
           y="228.54848"
           sodipodi:role="line"
           id="tspan2460">1. Request outgoing tuple</tspan>
        <tspan
           style="font-size:24.36717796px;font-variant:normal;font-weight:normal;writing-mode:lr-tb;fill:#000000;fill-opacity:1;fill-rule:nonzero;stroke:none;font-family:DejaVuSans;-inkscape-font-specification:DejaVuSans"
           x="484.16858 493.67175 510.58261 525.56842 538.94604 553.93182 560.68158 575.08252 590.06836 600.08325 607.80762 631.54126 646.42957 660.83057 675.81641 688.48737 696.21179 711.1001 726.5246 736.35748 744.08191 758.97021 767.54749 775.27191 785.28687 800.19952 815.6239 831.07275 846.05853"
           y="263.35361"
           sodipodi:role="line"
           id="tspan2462">[Receiver moves out of range]</tspan>
        <tspan
           style="font-size:24.36717796px;font-variant:normal;font-weight:normal;writing-mode:lr-tb;fill:#000000;fill-opacity:1;fill-rule:nonzero;stroke:none;font-family:DejaVuSans;-inkscape-font-specification:DejaVuSans"
           x="484.16858 493.67175 510.58261 525.56842 538.94604 553.93182 560.68158 575.08252 590.06836 600.08325 607.80762 623.23206 638.65643 653.56921 667.97009 682.88293 689.63257 696.38239 711.29504 726.74384 733.83484 748.82074"
           y="298.16687"
           sodipodi:role="line"
           id="tspan2464">[Receiver unavailable]</tspan>
        <tspan
           style="font-size:24.36717796px;font-variant:normal;font-weight:normal;writing-mode:lr-tb;fill:#000000;fill-opacity:1;fill-rule:nonzero;stroke:none;font-family:DejaVuSans;-inkscape-font-specification:DejaVuSans"
           x="484.16858 493.67175 510.58261 525.56842 538.94604 553.93182 560.68158 575.08252 590.06836 600.08325 607.80762 623.23206 638.65643 653.56921 667.97009 682.88293 689.63257 696.38239 711.29504 726.74384 733.83484 748.82074"
           y="332.98022"
           sodipodi:role="line"
           id="tspan2466">[Receiver unavailable]</tspan>
        <tspan
           style="font-size:24.36717796px;font-variant:normal;font-weight:normal;writing-mode:lr-tb;fill:#000000;fill-opacity:1;fill-rule:nonzero;stroke:none;font-family:DejaVuSans;-inkscape-font-specification:DejaVuSans"
           x="484.16858 493.67175 510.58261 525.56842 538.94604 553.93182 560.68158 575.08252 590.06836 600.08325 607.80762 631.54126 646.42957 660.83057 675.81641 688.48737 696.21179 711.66058 726.57324 740.24847 754.35699 762.08148 768.83124 784.25562 793.8075 808.69592 816.42023 826.43518 841.34784 856.77234 872.22113 887.20685"
           y="367.78528"
           sodipodi:role="line"
           id="tspan2468">[Receiver moves back into range]</tspan>
        <tspan
           style="font-size:24.36717796px;font-variant:normal;font-weight:normal;writing-mode:lr-tb;fill:#000000;fill-opacity:1;fill-rule:nonzero;stroke:none;font-family:DejaVuSans;-inkscape-font-specification:DejaVuSans"
           x="484.16858 499.66611 507.39056 515.11493 532.0257 547.01154 562.46039 577.44617 592.35883 601.91077 609.63519 619.65009 634.63586 650.08478 665.50909 680.49487 693.16589"
           y="402.59854"
           sodipodi:role="line"
           id="tspan2470">5. Repeat request</tspan>
        <tspan
           style="font-size:24.36717796px;font-variant:normal;font-weight:normal;writing-mode:lr-tb;fill:#000000;fill-opacity:1;fill-rule:nonzero;stroke:none;font-family:DejaVuSans;-inkscape-font-specification:DejaVuSans"
           x="484.16858 499.66611 507.39056 515.11493 532.0257 547.01154 560.3891 575.37494 582.12469 596.5257 611.51141 619.2359 634.12421 649.54871 659.10059 674.54932 689.43762 696.18744 711.61176 727.06067 735.13196 744.68384 760.10822 775.55695 782.30676"
           y="437.4118"
           sodipodi:role="line"
           id="tspan2472">7. Receive outgoing tuple</tspan>
        <tspan
           style="font-size:24.36717796px;font-variant:normal;font-weight:normal;writing-mode:lr-tb;fill:#000000;fill-opacity:1;fill-rule:nonzero;stroke:none;font-family:DejaVuSans;-inkscape-font-specification:DejaVuSans"
           x="484.16858 499.66611 507.39056 515.11493 534.29187 549.71631 559.26819 574.71704 590.14148 599.69336 607.41779 617.43268 632.41846 647.86725 654.617 669.01801 676.74231 686.29437 701.71875 717.16748 723.9173"
           y="472.21692"
           sodipodi:role="line"
           id="tspan2474">8. Output reply tuple</tspan>
        <tspan
           style="font-size:24.36717796px;font-variant:normal;font-weight:normal;writing-mode:lr-tb;fill:#000000;fill-opacity:1;fill-rule:nonzero;stroke:none;font-family:DejaVuSans;-inkscape-font-specification:DejaVuSans"
           x="7.0480008 22.545492 30.269938 37.994331 57.171261 72.595749 82.147636 97.596428 113.02082 122.57281 130.29721 145.18558 160.60995 170.1619 185.61073 200.49905 207.24879 222.67311 238.12196 245.84636 255.71475 271.13919 286.58804 293.33774"
           y="259.44128"
           sodipodi:role="line"
           id="tspan2476">2. Output outgoing tuple</tspan>
        <tspan
           style="font-size:24.36717796px;font-variant:normal;font-weight:normal;writing-mode:lr-tb;fill:#000000;fill-opacity:1;fill-rule:nonzero;stroke:none;font-family:DejaVuSans;-inkscape-font-specification:DejaVuSans"
           x="7.0480008 22.545492 30.269938 37.994331 54.905098 69.890961 85.339752 100.76419 115.74996 128.42091 137.97285 145.69725 160.60995 167.35971 174.10941 181.8338 191.84871 206.83453 222.28325 229.03299 243.43398 251.51443 261.06638 276.49081 291.93961 298.6893 313.67511 326.34601"
           y="294.25455"
           sodipodi:role="line"
           id="tspan2478">3. Request all reply tuples</tspan>
        <tspan
           style="font-size:24.36717796px;font-variant:normal;font-weight:normal;writing-mode:lr-tb;fill:#000000;fill-opacity:1;fill-rule:nonzero;stroke:none;font-family:DejaVuSans;-inkscape-font-specification:DejaVuSans"
           x="7.0480008 22.545492 30.269938 37.994331 53.443123 68.355835 77.907776 84.657471 97.328369 105.90566 120.30665 128.0311 138.04601 153.03177 168.48056 183.905 198.89082 211.56171"
           y="329.05966"
           sodipodi:role="line"
           id="tspan2480">4. Satisfy request</tspan>
        <tspan
           style="font-size:24.36717796px;font-variant:normal;font-weight:normal;writing-mode:lr-tb;fill:#000000;fill-opacity:1;fill-rule:nonzero;stroke:none;font-family:DejaVuSans;-inkscape-font-specification:DejaVuSans"
           x="7.0480008 22.545492 30.269938 37.994331 53.443123 68.355835 77.907776 84.657471 97.328369 105.90566 120.30665 128.0311 138.04601 153.03177 168.48056 183.905 198.89082 211.56171 221.11369"
           y="433.49124"
           sodipodi:role="line"
           id="tspan2482">6. Satisfy request</tspan>
      </text>
      <g
         id="g2484"
         transform="matrix(2.0822883,0,0,2.0822883,6.0719293,-363.55343)">
        <path
           d="M 214.137,278.812 L 175.48,278.812"
           style="fill:none;stroke:#000000;stroke-width:2.08966303;stroke-linecap:butt;stroke-linejoin:miter;stroke-miterlimit:10;stroke-dasharray:none;stroke-opacity:1"
           id="path2486" />
      </g>
      <path
         d="M 371.47191,206.13908 L 349.71408,217.01487 L 371.47191,227.89691 L 371.47191,206.13908 z"
         style="fill:#000000;fill-opacity:1;fill-rule:nonzero;stroke:none"
         id="path2488" />
      <text
         style="font-size:24.98745918px"
         y="95.184464"
         x="226.79448"
         id="text2490">
        <tspan
           style="font-size:33.31661224px;font-variant:normal;font-weight:bold;writing-mode:lr-tb;fill:#000080;fill-opacity:1;fill-rule:nonzero;stroke:none;font-family:DejaVuSansBold;-inkscape-font-specification:DejaVuSansBold"
           x="226.79448 247.90256 266.51602 286.11636 295.49164 313.36496 322.90475 341.62787 360.13165 369.50693 378.88226 398.37296 411.91501 430.50104 440.0408 459.8056 476.03412 494.62018 514.36975 532.84607 546.38812 555.76343 574.59625"
           y="95.184464"
           sodipodi:role="line"
           id="tspan2492">Reply Failure Scenario</tspan>
      </text>
      <g
         id="g2494"
         transform="matrix(2.0822883,0,0,2.0822883,6.0719293,-363.55343)">
        <path
           d="M 216.227,362.555 L 177.57,362.555"
           style="fill:none;stroke:#000000;stroke-width:2.08966303;stroke-linecap:butt;stroke-linejoin:miter;stroke-miterlimit:10;stroke-dasharray:none;stroke-opacity:1"
           id="path2496" />
      </g>
      <path
         d="M 375.82389,380.51407 L 354.06606,391.38985 L 375.82389,402.27397 L 375.82389,380.51407 z"
         style="fill:#000000;fill-opacity:1;fill-rule:nonzero;stroke:none"
         id="path2498" />
      <g
         id="g2500"
         transform="matrix(2.0822883,0,0,2.0822883,6.0719293,-363.55343)">
        <path
           d="M 208.914,380.32 L 170.254,380.32"
           style="fill:none;stroke:#000000;stroke-width:2.08966303;stroke-linecap:butt;stroke-linejoin:miter;stroke-miterlimit:10;stroke-dasharray:none;stroke-opacity:1"
           id="path2502" />
      </g>
      <path
         d="M 441.09113,439.25751 L 462.84896,428.3838 L 441.09113,417.49966 L 441.09113,439.25751 z"
         style="fill:#000000;fill-opacity:1;fill-rule:nonzero;stroke:none"
         id="path2504" />
      <g
         id="g2524"
         transform="matrix(2.0822883,0,0,2.0822883,6.0719293,-363.55343)">
        <path
           d="M 205.258,329.121 L 166.598,329.121"
           style="fill:none;stroke:#000000;stroke-width:2.08966303;stroke-linecap:butt;stroke-linejoin:miter;stroke-miterlimit:10;stroke-dasharray:none;stroke-opacity:1"
           id="path2526" />
      </g>
      <path
         d="M 433.47829,332.65476 L 455.23612,321.77063 L 433.47829,310.89692 L 433.47829,332.65476 z"
         style="fill:#000000;fill-opacity:1;fill-rule:nonzero;stroke:none"
         id="path2528" />
    </g>
  </g>
</svg>
