<?xml version="1.0" encoding="UTF-8" standalone="no"?>
<!-- Created with Inkscape (http://www.inkscape.org/) -->
<svg
   xmlns:dc="http://purl.org/dc/elements/1.1/"
   xmlns:cc="http://creativecommons.org/ns#"
   xmlns:rdf="http://www.w3.org/1999/02/22-rdf-syntax-ns#"
   xmlns:svg="http://www.w3.org/2000/svg"
   xmlns="http://www.w3.org/2000/svg"
   xmlns:sodipodi="http://sodipodi.sourceforge.net/DTD/sodipodi-0.dtd"
   xmlns:inkscape="http://www.inkscape.org/namespaces/inkscape"
   width="900"
   height="495"
   id="svg2618"
   sodipodi:version="0.32"
   inkscape:version="0.46"
   version="1.0"
   sodipodi:docname="tuple-ideal.svg"
   inkscape:output_extension="org.inkscape.output.svg.inkscape">
  <defs
     id="defs2620">
    <inkscape:perspective
       sodipodi:type="inkscape:persp3d"
       inkscape:vp_x="0 : 526.18109 : 1"
       inkscape:vp_y="0 : 1000 : 0"
       inkscape:vp_z="744.09448 : 526.18109 : 1"
       inkscape:persp3d-origin="372.04724 : 350.78739 : 1"
       id="perspective2626" />
  </defs>
  <sodipodi:namedview
     id="base"
     pagecolor="#ffffff"
     bordercolor="#666666"
     borderopacity="1.0"
     gridtolerance="10000"
     guidetolerance="10"
     objecttolerance="10"
     inkscape:pageopacity="0.0"
     inkscape:pageshadow="2"
     inkscape:zoom="0.35"
     inkscape:cx="33.571429"
     inkscape:cy="24.001613"
     inkscape:document-units="px"
     inkscape:current-layer="layer1"
     showgrid="false"
     inkscape:window-width="1440"
     inkscape:window-height="849"
     inkscape:window-x="0"
     inkscape:window-y="27" />
  <metadata
     id="metadata2623">
    <rdf:RDF>
      <cc:Work
         rdf:about="">
        <dc:format>image/svg+xml</dc:format>
        <dc:type
           rdf:resource="http://purl.org/dc/dcmitype/StillImage" />
      </cc:Work>
    </rdf:RDF>
  </metadata>
  <g
     inkscape:label="Layer 1"
     inkscape:groupmode="layer"
     id="layer1">
    <g
       id="g2655"
       transform="translate(0.285692,-51.550464)">
      <text
         style="font-size:27.17660141px"
         y="217.98866"
         x="130.75986"
         id="text2418">
        <tspan
           style="font-size:26.50197792px;font-variant:normal;font-weight:bold;writing-mode:lr-tb;fill:#000000;fill-opacity:1;fill-rule:nonzero;stroke:none;font-family:DejaVuSansBoldOblique;-inkscape-font-specification:DejaVuSansBoldOblique"
           x="130.75986 149.84126 167.80966 186.65253 205.60139 223.56981"
           y="217.98866"
           sodipodi:role="line"
           id="tspan2420">Sender</tspan>
        <tspan
           style="font-size:26.50197792px;font-variant:normal;font-weight:bold;writing-mode:lr-tb;fill:#000000;fill-opacity:1;fill-rule:nonzero;stroke:none;font-family:DejaVuSansBoldOblique;-inkscape-font-specification:DejaVuSansBoldOblique"
           x="625.2998 645.70636 663.67456 679.36383 697.33221 706.39587 723.64856 741.617"
           y="217.59056"
           sodipodi:role="line"
           id="tspan2422">Receiver</tspan>
      </text>
      <text
         style="font-size:27.17660141px"
         y="286.51428"
         x="540.31104"
         id="text2424">
        <tspan
           style="font-size:26.50197792px;font-variant:normal;font-weight:normal;writing-mode:lr-tb;fill:#000000;fill-opacity:1;fill-rule:nonzero;stroke:none;font-family:DejaVuSans;-inkscape-font-specification:DejaVuSans"
           x="540.31104 557.16626 565.56732 573.96851 592.3609 608.65955 625.46179 642.23761 658.53625 672.31732 682.70605 691.10724 707.29987 724.07574 734.46448 751.26666 767.45941 774.80042 791.57623 808.73145 817.13269 827.52142 844.29718 861.09949 868.44049 884.73926"
           y="286.51428"
           sodipodi:role="line"
           id="tspan2426">1. Request outgoing tuple</tspan>
        <tspan
           style="font-size:26.50197792px;font-variant:normal;font-weight:normal;writing-mode:lr-tb;fill:#000000;fill-opacity:1;fill-rule:nonzero;stroke:none;font-family:DejaVuSans;-inkscape-font-specification:DejaVuSans"
           x="540.31104 557.16626 565.56732 573.96851 590.77069 606.98999 622.65259 638.95135 647.35248 658.24481 674.54358 691.3457 698.68683 714.34949 722.75049 733.64282 749.94159 766.74384 783.51971 799.81836 813.94696"
           y="362.23178"
           sodipodi:role="line"
           id="tspan2428">4. Save reply request</tspan>
        <tspan
           style="font-size:26.50197792px;font-variant:normal;font-weight:normal;writing-mode:lr-tb;fill:#000000;fill-opacity:1;fill-rule:nonzero;stroke:none;font-family:DejaVuSans;-inkscape-font-specification:DejaVuSans"
           x="540.31104 557.16626 565.56732 573.96851 592.3609 608.65955 623.20923 639.50793 646.849 662.5116 678.81024 687.21136 703.40411 720.17993 730.5686 747.37091 763.56366 770.9046 787.68048 804.48267 813.26111 823.64984 840.42566 857.22797 864.56891"
           y="400.09506"
           sodipodi:role="line"
           id="tspan2430">5. Receive outgoing tuple</tspan>
        <tspan
           style="font-size:26.50197792px;font-variant:normal;font-weight:normal;writing-mode:lr-tb;fill:#000000;fill-opacity:1;fill-rule:nonzero;stroke:none;font-family:DejaVuSans;-inkscape-font-specification:DejaVuSans"
           x="540.31104 557.16626 565.56732 573.96851 594.82568 611.60132 621.99005 638.79236 655.56805 665.95685 674.35803 685.25018 701.54907 718.35126 725.69226 741.35492 749.75616 760.1449 776.92059 793.72296 801.06396"
           y="437.95828"
           sodipodi:role="line"
           id="tspan2432">6. Output reply tuple</tspan>
        <tspan
           style="font-size:26.50197792px;font-variant:normal;font-weight:normal;writing-mode:lr-tb;fill:#000000;fill-opacity:1;fill-rule:nonzero;stroke:none;font-family:DejaVuSans;-inkscape-font-specification:DejaVuSans"
           x="540.31104 557.16626 565.56732 573.96851 590.77069 606.98999 617.37885 624.71979 638.50079 647.82953 663.49213 671.89325 682.78558 699.08435 715.8866 723.22772 738.8902 747.29138 758.18378 774.48242 791.28473 808.42096 824.71973 838.50067"
           y="475.81277"
           sodipodi:role="line"
           id="tspan2434">7. Satisfy reply request</tspan>
        <tspan
           style="font-size:26.50197792px;font-variant:normal;font-weight:normal;writing-mode:lr-tb;fill:#000000;fill-opacity:1;fill-rule:nonzero;stroke:none;font-family:DejaVuSans;-inkscape-font-specification:DejaVuSans"
           x="14.294985 31.150261 39.551357 47.952518 68.809586 85.585358 95.974083 112.77639 129.55215 139.94087 148.34201 164.53473 181.31044 191.69922 208.50153 224.6942 232.03529 248.81094 265.61325 274.01437 284.74734 301.52313 318.32541 325.66647"
           y="324.84625"
           sodipodi:role="line"
           id="tspan2436">2. Output outgoing tuple</tspan>
        <tspan
           style="font-size:26.50197792px;font-variant:normal;font-weight:normal;writing-mode:lr-tb;fill:#000000;fill-opacity:1;fill-rule:nonzero;stroke:none;font-family:DejaVuSans;-inkscape-font-specification:DejaVuSans"
           x="14.294985 31.150261 39.551357 47.952518 66.344887 82.6436 99.445915 116.22161 132.52034 146.30133 156.69016 165.09128 181.31044 188.65154 195.99257 204.39369 215.286 231.58472 248.38692 255.72801 271.39066 280.17911 290.56781 307.3436 324.14587 331.48694 347.78558 361.56665"
           y="362.7095"
           sodipodi:role="line"
           id="tspan2438">3. Request all reply tuples</tspan>
        <tspan
           style="font-size:26.50197792px;font-variant:normal;font-weight:normal;writing-mode:lr-tb;fill:#000000;fill-opacity:1;fill-rule:nonzero;stroke:none;font-family:DejaVuSans;-inkscape-font-specification:DejaVuSans"
           x="14.294985 31.150261 39.551357 47.952518 64.754738 80.973976 91.362762 98.703796 112.48483 121.81352 137.47623 145.87735 156.76967 173.06837 189.87059 206.64635 222.94507 236.72606"
           y="400.56406"
           sodipodi:role="line"
           id="tspan2440">5. Satisfy request</tspan>
        <tspan
           style="font-size:26.50197792px;font-variant:normal;font-weight:normal;writing-mode:lr-tb;fill:#000000;fill-opacity:1;fill-rule:nonzero;stroke:none;font-family:DejaVuSans;-inkscape-font-specification:DejaVuSans"
           x="14.294985 31.150261 39.551357 47.952518 66.344887 82.6436 97.193184 113.49191 120.83293 136.49564 152.79436 161.1955 172.08778 188.38654 205.18878 212.5298 228.19246 236.59358 246.98236 263.75806 280.90372 288.24478 304.54343"
           y="476.29053"
           sodipodi:role="line"
           id="tspan2442">8. Receive reply tuple</tspan>
      </text>
      <text
         style="font-size:27.17660141px"
         y="143.82825"
         x="326.64017"
         id="text2450">
        <tspan
           style="font-size:36.23546982px;font-variant:normal;font-weight:bold;writing-mode:lr-tb;fill:#000080;fill-opacity:1;fill-rule:nonzero;stroke:none;font-family:DejaVuSansBold;-inkscape-font-specification:DejaVuSansBold"
           x="326.64017 337.73126 359.07867 379.293 399.38809 409.58478 419.99008 441.45667 459.10703 479.35126 500.5495 520.64459 535.37317 545.56982 566.05243"
           y="143.82825"
           sodipodi:role="line"
           id="tspan2452">Ideal Scenario</tspan>
      </text>
      <g
         id="g2506"
         transform="matrix(2.2647168,0,0,2.2647168,14.295058,114.96189)">
        <path
           d="M 209.438,104.484 L 170.777,104.484"
           style="fill:none;stroke:#000000;stroke-width:2.08966303;stroke-linecap:butt;stroke-linejoin:miter;stroke-miterlimit:10;stroke-dasharray:none;stroke-opacity:1"
           id="path2508" />
      </g>
      <path
         d="M 488.61282,363.41636 L 512.27686,351.59001 L 488.61282,339.75234 L 488.61282,363.41636 z"
         style="fill:#000000;fill-opacity:1;fill-rule:nonzero;stroke:none"
         id="path2510" />
      <g
         id="g2512"
         transform="matrix(2.2647168,0,0,2.2647168,14.295058,114.96189)">
        <path
           d="M 209.438,127.469 L 170.777,127.469"
           style="fill:none;stroke:#000000;stroke-width:2.08966303;stroke-linecap:butt;stroke-linejoin:miter;stroke-miterlimit:10;stroke-dasharray:none;stroke-opacity:1"
           id="path2514" />
      </g>
      <path
         d="M 488.61282,415.47994 L 512.27686,403.64226 L 488.61282,391.81364 L 488.61282,415.47994 z"
         style="fill:#000000;fill-opacity:1;fill-rule:nonzero;stroke:none"
         id="path2516" />
      <g
         id="g2518"
         transform="matrix(2.2647168,0,0,2.2647168,14.295058,114.96189)">
        <path
           d="M 220.93,154.637 L 182.27,154.637"
           style="fill:none;stroke:#000000;stroke-width:2.08966303;stroke-linecap:butt;stroke-linejoin:miter;stroke-miterlimit:10;stroke-dasharray:none;stroke-opacity:1"
           id="path2520" />
      </g>
      <path
         d="M 427.085,453.33468 L 403.42776,465.17009 L 427.085,476.9987 L 427.085,453.33468 z"
         style="fill:#000000;fill-opacity:1;fill-rule:nonzero;stroke:none"
         id="path2522" />
      <g
         id="g2530"
         transform="matrix(2.2647168,0,0,2.2647168,14.295058,114.96189)">
        <path
           d="M 222.34,72.301 L 183.68,72.301"
           style="fill:none;stroke:#000000;stroke-width:2.08966303;stroke-linecap:butt;stroke-linejoin:miter;stroke-miterlimit:10;stroke-dasharray:none;stroke-opacity:1"
           id="path2532" />
      </g>
      <path
         d="M 430.27825,266.87375 L 406.62102,278.70236 L 430.27825,290.54004 L 430.27825,266.87375 z"
         style="fill:#000000;fill-opacity:1;fill-rule:nonzero;stroke:none"
         id="path2534" />
    </g>
  </g>
</svg>
